<svg xmlns="http://www.w3.org/2000/svg" viewBox="0 0 231.2 146.2" enable-background="new 0 0 231.2 146.2"><path fill="#003375" d="M0 0h231.2v146.2H0z"/><path fill="#ED1C24" d="M221.3 73.1c0 34.9-28.3 63.3-63.3 63.3-34.9 0-63.3-28.3-63.3-63.3S123 9.8 158 9.8s63.3 28.4 63.3 63.3z"/><path fill="#00A2E5" d="M109.2 113.3c-1.7-2.1-3.4-4.4-4.8-6.7h22.4c1.3-2.1 2.6-4.4 3.6-6.7h-29.7c-1-2.2-1.9-4.4-2.7-6.7h35.1c2.1-6.3 3.3-13.1 3.3-20.1 0-4.6-.5-9.1-1.4-13.4H96.2c.5-2.3 1.1-4.5 1.8-6.7h35.1c-.8-2.3-1.7-4.5-2.7-6.7h-29.7c1.1-2.3 2.3-4.5 3.6-6.7h22.4c-1.5-2.3-3.1-4.6-4.8-6.7h-12.8c2-2.4 4.1-4.6 6.4-6.7C104.4 16 89.5 9.8 73.1 9.8 38.2 9.8 9.8 38.2 9.8 73.1s28.3 63.3 63.3 63.3c16.4 0 31.3-6.2 42.5-16.4 2.3-2.1 4.4-4.3 6.4-6.7h-12.8z"/><path fill="#fff" d="M212.9 108.4c0-1.1.9-2 2-2s2 .9 2 2-.9 2-2 2-2-.9-2-2zm2.1 1.5c.9 0 1.6-.7 1.6-1.6 0-.9-.7-1.5-1.6-1.5-.9 0-1.6.7-1.6 1.5 0 .9.7 1.6 1.6 1.6zm-.3-.6h-.4v-1.8h.8c.2 0 .3 0 .5.1.1.1.2.3.2.4 0 .2-.1.4-.3.5l.3.8h-.5l-.3-.7h-.3v.7zm0-1h.5c.1 0 .1-.1.1-.2s0-.1-.1-.2h-.5v.4z"/><g fill="#003375"><path d="M114.7 90.2c-2.7.7-5.3 1.1-8.1 1.1-8.8 0-13.4-4-13.4-11.7 0-9 5.8-15.6 13.8-15.6 6.5 0 10.6 3.7 10.6 9.5 0 1.9-.3 3.8-1 6.4H101c-.6 3.8 2.2 5.4 6.8 5.4 2.8 0 5.3-.5 8.1-1.6l-1.2 6.5zm-4.2-15.5c0-.6.9-4.6-3.7-4.7-2.5 0-4.3 1.7-5 4.7h8.7zM120 72.9c0 3.3 1.9 5.6 6.1 7.3 3.2 1.3 3.8 1.7 3.8 2.9 0 1.6-1.4 2.4-4.6 2.4-2.4 0-4.6-.3-7.1-1l-1.1 6c2.3.5 5.5.7 8.3.8 8.5 0 12.4-2.8 12.4-8.8 0-3.6-1.6-5.7-5.7-7.3-3.4-1.3-3.8-1.6-3.8-2.8 0-1.4 1.3-2.2 3.9-2.2 1.6 0 3.7.1 5.8.4l1.1-6.1c-2.1-.3-5.2-.5-7.1-.5-8.9 0-12 4-12 8.9zM88.9 90.8h-6.6l.2-2.8c-2 2.2-4.7 3.2-8.3 3.2-4.3 0-7.2-2.9-7.2-7.2-.1-6.3 5-10 13.8-10 .9 0 2.1.1 3.2.2.2-.9.3-1.2.3-1.7 0-1.8-1.4-2.4-5.1-2.4-3.6 0-6.1.6-8.4 1.2l1.1-5.9c3.9-1 6.5-1.4 9.5-1.4 6.8 0 10.4 2.7 10.4 7.7.1 1.3-.4 4-.6 5.2-.2 1.7-2.1 11.6-2.3 13.9zm-5.8-11.7c-.8-.1-1.2-.1-1.8-.1-4.5 0-6.8 1.3-6.8 4 0 1.7 1.1 2.7 2.8 2.7 3.4 0 5.7-2.7 5.8-6.6zM151.5 90.4c-2.2.6-3.8.8-5.7.8-4 0-6.2-2.1-6.2-5.7-.1-1 .9-5.7 1.1-7 .2-1.3 3.7-20.3 3.7-20.3h7.8l-1.2 6.3h4l-1 6.5h-4s-2.2 11.1-2.2 12c0 1.3.8 1.9 2.7 1.9.9 0 1.6-.1 2.1-.2l-1.1 5.7zM186.5 64c-5.7 0-10.2 2.4-12.8 6.3l2.3-5.9c-4.2-1.5-6.9.7-9.3 3.8l-.8 1v-4.6h-7.4c-1 8.1-2.8 16.3-4.1 24.5l-.3 1.8h7.9c.8-4.1 1.4-7.5 2-10.2 1.7-7.3 4.5-9.6 8.8-8.6-1 2.1-1.5 4.5-1.5 7.2 0 6.6 3.6 11.9 12.4 11.9 8.9 0 15.4-4.8 15.4-15.6-.2-6.5-4.5-11.6-12.6-11.6zm-2.3 20.9c-2.8 0-4.5-2.3-4.5-5.8 0-4.2 2.5-8.9 6.4-8.9 3.2 0 4.3 2.5 4.3 5.2.1 6-2.3 9.5-6.2 9.5zM63.2 90.9h-7.8l4.7-24.7-10.8 24.7h-7.2l-1.3-24.6-4.7 24.6h-7.2L35 58.8h12.3l1.1 17.9 7.8-17.9h13.3z"/></g><g fill="#fff"><path d="M199.5 86.8c0-1.1.9-2 2-2s2 .9 2 2-.9 2-2 2-2-.8-2-2zm2.1 1.6c.9 0 1.6-.7 1.6-1.6 0-.9-.7-1.6-1.6-1.6-.9 0-1.6.7-1.6 1.6 0 .9.7 1.6 1.6 1.6zm-.3-.7h-.4v-1.8h.8c.2 0 .3 0 .5.1.1.1.2.3.2.4 0 .2-.1.4-.3.5l.3.8h-.5l-.3-.7h-.3v.7zm0-1h.5c.1 0 .1-.1.1-.2s0-.1-.1-.2h-.5v.4zM116.7 88.2c-2.7.7-5.3 1.1-8.1 1.1-8.8 0-13.4-4-13.4-11.7 0-9 5.8-15.6 13.8-15.6 6.5 0 10.6 3.7 10.6 9.5 0 1.9-.3 3.8-1 6.4h-15.7c-.6 3.7 2.2 5.4 6.8 5.4 2.8 0 5.3-.5 8.1-1.6l-1.1 6.5zm-4.3-15.5c0-.6.9-4.6-3.7-4.7-2.5 0-4.3 1.7-5 4.7h8.7zM122 70.9c0 3.3 1.9 5.6 6.1 7.3 3.2 1.3 3.8 1.7 3.8 2.9 0 1.6-1.4 2.4-4.6 2.4-2.4 0-4.6-.3-7.1-1l-1.1 6c2.3.5 5.5.7 8.3.8 8.5 0 12.4-2.8 12.4-8.8 0-3.6-1.6-5.7-5.7-7.3-3.4-1.3-3.8-1.6-3.8-2.8 0-1.4 1.3-2.2 3.9-2.2 1.6 0 3.7.1 5.8.4l1.1-6.1c-2.1-.3-5.2-.5-7.1-.5-8.9 0-12.1 4.1-12 8.9zM90.9 88.9h-6.6l.2-2.8c-2 2.2-4.7 3.2-8.3 3.2-4.3 0-7.2-2.9-7.2-7.2-.1-6.4 5-10.1 13.8-10.1.9 0 2.1.1 3.2.2.2-.9.3-1.2.3-1.7 0-1.8-1.4-2.4-5.1-2.4-3.6 0-6.1.6-8.4 1.2l1.1-5.9c3.9-1 6.5-1.4 9.5-1.4 6.8 0 10.4 2.7 10.4 7.7.1 1.3-.4 4-.6 5.2-.2 1.7-2.1 11.6-2.3 14zm-5.8-11.7c-.8-.1-1.2-.1-1.8-.1-4.5 0-6.8 1.3-6.8 4 0 1.7 1.1 2.7 2.8 2.7 3.3-.1 5.7-2.8 5.8-6.6zM153.5 88.5c-2.2.6-3.8.8-5.7.8-4 0-6.2-2.1-6.2-5.7-.1-1 .9-5.7 1.1-7 .2-1.3 3.7-20.3 3.7-20.3h7.8l-1.2 6.3h4l-1 6.4h-4s-2.2 11.1-2.2 12c0 1.4.8 1.9 2.7 1.9.9 0 1.6-.1 2.1-.2l-1.1 5.8zM192.5 73.5c0 5.9-2.4 9.4-6.3 9.4-2.8 0-4.5-2.3-4.5-5.8 0-4.2 2.5-8.9 6.4-8.9 3.3.1 4.4 2.6 4.4 5.3zm8.4.2c0-6.5-4.3-11.7-12.4-11.7-9.3 0-15.4 6.2-15.4 15.4 0 6.6 3.6 11.9 12.4 11.9 9 0 15.4-4.8 15.4-15.6zM160.5 62.6c-1 8.1-2.8 16.4-4.1 24.5l-.3 1.8h7.9c2.9-15.7 3.8-20.2 9.8-18.6l2.9-7.4c-4.2-1.5-6.8.7-9.3 3.8.2-1.4.6-2.7.5-4h-7.4zM65.2 88.9h-7.9L62 64.2 51.3 88.9h-7.2l-1.3-24.5-4.7 24.5h-7.2L37 56.8h12.3l.7 19.9 8.6-19.9h12.8z"/></g></svg>