<svg xmlns="http://www.w3.org/2000/svg" viewBox="0 22.9 595.3 376.6" enable-background="new 0 22.9 595.3 376.6"><path fill="#003473" d="M0 22.9h595.3v376.6H0z"/><circle fill="#ED1C2E" cx="188.3" cy="211.2" r="162.9"/><path fill="#FCB131" d="M407 48.2c-42.1 0-80.5 16-109.4 42.2-5.9 5.3-11.4 11.1-16.4 17.2h32.9c4.5 5.5 8.6 11.2 12.4 17.3h-57.8c-3.5 5.5-6.6 11.3-9.4 17.3h76.5c2.6 5.6 4.9 11.3 6.9 17.2h-90.3c-1.9 5.6-3.5 11.4-4.7 17.2h99.8c2.4 11.1 3.7 22.7 3.7 34.5 0 18.1-2.9 35.5-8.4 51.8h-90.3c2 5.9 4.3 11.7 6.9 17.3h76.5c-2.8 6-5.9 11.7-9.4 17.3h-57.8c3.8 6 7.9 11.8 12.4 17.2H314c-5.1 6.1-10.6 11.9-16.5 17.3 28.9 26.2 67.3 42.2 109.4 42.2 90 0 162.9-72.9 162.9-162.9C570 121.2 497 48.2 407 48.2zM548.3 302c0-2.9 2.4-5.3 5.3-5.3s5.3 2.4 5.3 5.3-2.3 5.3-5.3 5.3-5.3-2.4-5.3-5.3zm5.2 4c2.2 0 4-1.8 4-4s-1.8-4-4-4-4 1.8-4 4 1.8 4 4 4zm-.7-1.7h-1.1v-4.6h2c.4 0 .8 0 1.2.2.4.3.6.7.6 1.2s-.3 1-.8 1.2l.9 2h-1.2l-.7-1.8h-.8v1.8zm0-2.6h.6c.2 0 .5 0 .7-.1.2-.1.3-.3.3-.5s-.1-.4-.3-.5c-.2-.1-.5-.1-.7-.1h-.6v1.2z"/><g fill="#003473"><path d="M150.2 229c-1.9-.2-2.7-.3-4-.3-10 0-15.1 3.4-15.1 10.2 0 4.2 2.5 6.8 6.3 6.8 7.3.1 12.5-6.7 12.8-16.7zm12.9 30h-14.7l.3-7c-4.5 5.5-10.4 8.1-18.5 8.1-9.6 0-16.2-7.5-16.2-18.4 0-16.4 11.4-25.9 31.1-25.9 2 0 4.6.2 7.2.5.5-2.2.7-3.2.7-4.4 0-4.4-3.1-6.1-11.3-6.1-8.7-.1-15.8 2.1-18.7 3 .2-1.1 2.5-15.1 2.5-15.1 8.8-2.6 14.6-3.6 21.2-3.6 15.2 0 23.2 6.8 23.2 19.7 0 3.5-.5 7.7-1.4 13.3-1.6 9.9-4.9 30.8-5.4 35.9zM106.7 259H89l10.1-63.6L76.5 259H64.4L63 195.8 52.3 259H35.7l13.9-82.7H75l1.5 46.3 15.6-46.3h28.3zM428.9 229c-1.9-.2-2.7-.3-3.9-.3-10 0-15.1 3.4-15.1 10.2 0 4.2 2.5 6.8 6.3 6.8 7.2.1 12.4-6.7 12.7-16.7zm12.9 30h-14.7l.3-7c-4.5 5.5-10.4 8.1-18.5 8.1-9.6 0-16.2-7.5-16.2-18.4 0-16.4 11.4-25.9 31.1-25.9 2 0 4.6.2 7.2.5.5-2.2.7-3.2.7-4.4 0-4.4-3.1-6.1-11.3-6.1-8.7-.1-15.8 2.1-18.7 3 .2-1.1 2.5-15.1 2.5-15.1 8.8-2.6 14.6-3.6 21.2-3.6 15.2 0 23.2 6.8 23.2 19.7 0 3.5-.5 7.7-1.4 13.3-1.7 9.9-5 30.8-5.4 35.9zM241.7 257.9c-4.8 1.5-8.6 2.2-12.7 2.2-9 0-14-5.2-14-14.8-.1-3 1.3-10.8 2.4-17.9 1-6.3 7.7-45.9 7.7-45.9h17.6l-2 10.2h10.6l-2.4 16.2h-10.7c-2 12.8-5 28.7-5 30.8 0 3.5 1.9 5 6.1 5 2 0 3.6-.2 4.8-.6l-2.4 14.8zM295.6 257.4c-6 1.8-11.9 2.7-18 2.7-19.7 0-29.9-10.3-29.9-30 0-23 13-39.9 30.8-39.9 14.5 0 23.8 9.5 23.8 24.3 0 4.9-.6 9.7-2.2 16.5h-35c-1.2 9.8 5.1 13.8 15.3 13.8 6.3 0 12-1.3 18.3-4.2l-3.1 16.8zm-9.9-39.8c.1-1.4 1.9-12-8.2-12-5.6 0-9.6 4.3-11.2 12h19.4zM173.7 213c0 8.5 4.1 14.4 13.5 18.8 7.2 3.4 8.3 4.4 8.3 7.4 0 4.2-3.2 6.1-10.2 6.1-5.3 0-10.2-.8-15.9-2.7 0 0-2.3 14.8-2.4 15.5 4 .9 7.6 1.7 18.4 2 18.7 0 27.3-7.1 27.3-22.5 0-9.2-3.6-14.7-12.5-18.7-7.4-3.4-8.3-4.2-8.3-7.3 0-3.6 2.9-5.5 8.7-5.5 3.5 0 8.2.4 12.7 1l2.5-15.6c-4.6-.7-11.5-1.3-15.6-1.3-19.7.1-26.5 10.4-26.5 22.8zM381.7 192c4.9 0 9.5 1.3 15.8 4.5l2.9-17.9c-2.6-1-11.7-7-19.4-7-11.8 0-21.9 5.9-28.9 15.6-10.3-3.4-14.5 3.5-19.7 10.3l-4.6 1.1c.3-2.3.7-4.5.6-6.8h-16.3c-2.2 20.8-6.1 41.9-9.2 62.7l-.8 4.5h17.7c3-19.2 4.6-31.5 5.6-39.8l6.7-3.7c1-3.7 4.1-5 10.4-4.8-.8 4.4-1.3 9-1.3 13.8 0 22 11.9 35.7 30.9 35.7 4.9 0 9.1-.6 15.6-2.4l3.1-18.8c-5.9 2.9-10.7 4.2-15 4.2-10.3 0-16.5-7.6-16.5-20.1-.1-18.3 9.2-31.1 22.4-31.1zM531.4 176.3l-3.9 23.9c-4.8-6.4-10-11-16.9-11-8.9 0-17 6.8-22.4 16.7-7.4-1.5-15.1-4.2-15.1-4.2v.1c.6-5.6.8-9 .8-10.1h-16.3c-2.2 20.8-6.1 41.9-9.2 62.7l-.8 4.5h17.7c2.4-15.5 4.2-28.4 5.6-38.6 6.1-5.5 9.1-10.2 15.2-9.9-2.7 6.5-4.3 14.1-4.3 21.8 0 16.8 8.5 27.9 21.4 27.9 6.5 0 11.5-2.2 16.3-7.4l-.8 6.3h16.7l13.5-82.6-17.5-.1zm-22.1 67.1c-6 0-9.1-4.5-9.1-13.3 0-13.2 5.7-22.6 13.7-22.6 6.1 0 9.4 4.6 9.4 13.2 0 13.4-5.8 22.7-14 22.7z"/></g><path fill="#fff" d="M111.8 254.1H94.1l10.1-63.6-22.6 63.6H69.5L68 190.9l-10.6 63.2H40.8l13.9-82.7h25.4l.7 51.2L98 171.4h27.5zM155.3 224.1c-1.9-.2-2.7-.3-3.9-.3-10 0-15.1 3.4-15.1 10.2 0 4.2 2.5 6.9 6.3 6.9 7.2 0 12.4-6.8 12.7-16.8zm12.9 30h-14.7l.3-7c-4.5 5.5-10.4 8.1-18.5 8.1-9.6 0-16.2-7.5-16.2-18.4 0-16.4 11.4-25.9 31.1-25.9 2 0 4.6.2 7.2.5.5-2.2.7-3.2.7-4.4 0-4.4-3.1-6.1-11.3-6.1-8.7-.1-15.8 2.1-18.7 3 .2-1.1 2.5-15.1 2.5-15.1 8.8-2.6 14.6-3.6 21.2-3.6 15.2 0 23.2 6.8 23.2 19.7 0 3.5-.5 7.7-1.4 13.3-1.7 9.9-5 30.8-5.4 35.9zM405.5 173.6l-2.9 17.9c-6.3-3.2-10.9-4.5-15.8-4.5-13.2 0-22.5 12.8-22.5 31 0 12.5 6.2 20.1 16.5 20.1 4.4 0 9.2-1.3 15-4.2l-3.1 18.8c-6.5 1.8-10.7 2.4-15.6 2.4-19 0-30.9-13.7-30.9-35.7 0-29.5 16.4-50.2 39.8-50.2 7.7.2 16.9 3.4 19.5 4.4zM434 224.1c-1.8-.2-2.7-.3-3.9-.3-10 0-15.1 3.4-15.1 10.2 0 4.2 2.5 6.9 6.3 6.9 7.2 0 12.4-6.8 12.7-16.8zm12.9 30h-14.7l.3-7c-4.5 5.5-10.4 8.1-18.5 8.1-9.6 0-16.2-7.5-16.2-18.4 0-16.4 11.4-25.9 31.1-25.9 2 0 4.6.2 7.2.5.5-2.2.7-3.2.7-4.4 0-4.4-3.1-6.1-11.3-6.1-8.6-.1-15.8 2.1-18.7 3 .2-1.1 2.5-15.1 2.5-15.1 8.8-2.6 14.6-3.6 21.2-3.6 15.2 0 23.2 6.8 23.2 19.7 0 3.5-.5 7.7-1.4 13.3-1.7 9.9-5 30.8-5.4 35.9zM246.8 253c-4.8 1.5-8.6 2.2-12.7 2.2-9 0-14-5.2-14-14.8-.1-3 1.3-10.8 2.4-17.9 1-6.3 7.7-45.9 7.7-45.9h17.6l-2.1 10.2h9l-2.4 16.2h-9.1c-2 12.8-5 28.7-5 30.8 0 3.5 1.9 5 6.1 5 2 0 3.6-.2 4.8-.6l-2.3 14.8zM300.7 252.5c-6 1.9-11.9 2.7-18 2.7-19.7 0-29.9-10.3-29.9-30 0-23 13.1-39.9 30.8-39.9 14.5 0 23.8 9.5 23.8 24.3 0 4.9-.6 9.7-2.2 16.5h-35c-1.2 9.8 5.1 13.8 15.3 13.8 6.3 0 12-1.3 18.3-4.2l-3.1 16.8zm-9.9-39.8c.1-1.4 1.9-12-8.2-12-5.6 0-9.6 4.3-11.2 12h19.4zM178.8 208.1c0 8.5 4.1 14.4 13.5 18.8 7.2 3.4 8.3 4.4 8.3 7.4 0 4.2-3.2 6.1-10.2 6.1-5.3 0-10.2-.8-15.9-2.6 0 0-2.3 14.8-2.4 15.5 4 .9 7.6 1.7 18.4 2 18.7 0 27.3-7.1 27.3-22.5 0-9.2-3.6-14.7-12.5-18.7-7.4-3.4-8.3-4.2-8.3-7.3 0-3.6 2.9-5.5 8.7-5.5 3.5 0 8.2.4 12.7 1l2.5-15.6c-4.6-.7-11.5-1.3-15.6-1.3-19.7-.1-26.6 10.3-26.5 22.7zM540.5 254.1h-16.7l.8-6.3c-4.9 5.2-9.8 7.4-16.3 7.4-12.9 0-21.4-11.1-21.4-27.9 0-22.4 13.2-41.2 28.8-41.2 6.9 0 12.1 2.8 16.9 9.2l3.9-23.9H554l-13.5 82.7zm-26.1-15.6c8.2 0 14-9.3 14-22.6 0-8.5-3.3-13.2-9.4-13.2-8 0-13.7 9.4-13.7 22.6 0 8.8 3.1 13.2 9.1 13.2zM462.8 186.9c-2.2 20.8-6.1 41.9-9.2 62.7l-.8 4.5h17.7c6.3-41.1 7.9-49.1 17.8-48.1 1.6-8.4 4.5-15.8 6.7-19.5-7.4-1.5-11.5 2.6-17 10.6.4-3.4 1.2-6.8 1.1-10.2h-16.3zM317.2 186.9c-2.2 20.8-6.2 41.9-9.2 62.7l-.8 4.5h17.7c6.3-41.1 7.9-49.1 17.8-48.1 1.6-8.4 4.5-15.8 6.7-19.5-7.4-1.5-11.5 2.6-17 10.6.4-3.4 1.2-6.8 1.1-10.2h-16.3zM548.3 248.8c0-2.9 2.4-5.3 5.3-5.3s5.3 2.3 5.3 5.3c0 2.9-2.3 5.3-5.3 5.3s-5.3-2.4-5.3-5.3zm5.2 4c2.2 0 4-1.8 4-4s-1.8-4-4-4-4 1.8-4 4 1.8 4 4 4zm-.7-1.7h-1.1v-4.6h2c.4 0 .8 0 1.2.2.4.3.6.7.6 1.2s-.3 1-.8 1.2l.8 2h-1.2l-.7-1.8h-.8v1.8zm0-2.6h.6c.2 0 .5 0 .7-.1.2-.1.3-.3.3-.5s-.1-.4-.3-.5c-.2-.1-.5-.1-.7-.1h-.6v1.2z"/></svg>