<svg xmlns="http://www.w3.org/2000/svg" viewBox="0 0 216 137.2" enable-background="new 0 0 216 137.2"><path fill="#fff" d="M0 0h216v137.2H0z"/><path fill="#FCB316" d="M3.6 114.9h208.8v18.7H3.6z"/><path fill="#10357F" d="M3.6 3.6h208.8v18.7H3.6zM85.8 39.2L65.3 88.1H51.9l-10.1-39c-.6-2.4-1.1-3.3-3-4.3-3-1.7-8.1-3.2-12.5-4.2l.3-1.4h21.5c2.7 0 5.2 1.8 5.8 5l5.3 28.3 13.2-33.3h13.4zm52.4 33c.1-12.9-17.8-13.6-17.7-19.4 0-1.8 1.7-3.6 5.4-4.1 1.8-.2 6.8-.4 12.5 2.2l2.2-10.4c-3-1.1-7-2.2-11.8-2.2-12.5 0-21.3 6.6-21.4 16.2-.1 7 6.3 11 11.1 13.3 4.9 2.4 6.6 3.9 6.6 6.1 0 3.3-3.9 4.7-7.6 4.8-6.4.1-10.1-1.7-13-3.1l-2.3 10.7c3 1.4 8.4 2.5 14.1 2.6 13.1 0 21.8-6.6 21.9-16.7m33 15.9h11.7l-10.2-48.9h-10.8c-2.4 0-4.5 1.4-5.4 3.6l-19 45.3h13.3l2.6-7.3h16.2l1.6 7.3zm-14.1-17.3l6.7-18.4 3.8 18.4h-10.5zm-53.3-31.6L93.4 88.1H80.7l10.5-48.9h12.6z"/><g fill="#10357F"><path d="M120 101.6h-5.1v4.8h5.8v1.4h-7.5V94.5h7.2V96h-5.5v4.2h5.1v1.4zM123.3 93.8h1.7v14h-1.7v-14zM129.4 103.4c0 2.3 1.5 3.3 3.3 3.3 1.2 0 2-.2 2.6-.5l.3 1.2c-.6.3-1.7.6-3.2.6-2.9 0-4.7-2-4.7-4.8 0-2.9 1.7-5.1 4.5-5.1 3.1 0 3.9 2.7 3.9 4.5 0 .4 0 .6-.1.8h-6.6zm5.1-1.3c0-1.1-.5-2.8-2.4-2.8-1.8 0-2.5 1.6-2.7 2.8h5.1zM145.6 107.5c-.5.2-1.5.6-2.7.6-2.9 0-4.7-2-4.7-4.9 0-2.9 2-5.1 5.1-5.1 1 0 1.9.3 2.4.5l-.4 1.3c-.4-.2-1.1-.5-2-.5-2.2 0-3.4 1.6-3.4 3.6 0 2.2 1.4 3.6 3.3 3.6 1 0 1.6-.2 2.1-.5l.3 1.4zM150.5 96v2.3h2.5v1.3h-2.5v5.1c0 1.2.3 1.9 1.3 1.9.5 0 .7 0 1-.1l.1 1.3c-.3.1-.9.2-1.5.2-.8 0-1.5-.3-1.9-.7-.5-.5-.7-1.4-.7-2.5v-5.2h-1.5v-1.3h1.5v-1.8l1.7-.5zM155.4 101.3c0-1.1 0-2.1-.1-3h1.5l.1 1.9h.1c.4-1.3 1.5-2.1 2.7-2.1h.5v1.6h-.6c-1.2 0-2.1.9-2.3 2.2 0 .2-.1.5-.1.8v5.1h-1.7v-6.5zM170.7 103c0 3.5-2.5 5.1-4.7 5.1-2.6 0-4.6-1.9-4.6-4.9 0-3.2 2.1-5 4.7-5 2.8-.1 4.6 1.9 4.6 4.8zm-7.5.1c0 2.1 1.2 3.7 2.9 3.7s2.9-1.6 2.9-3.7c0-1.6-.8-3.6-2.9-3.6-2-.1-2.9 1.8-2.9 3.6zM173.4 100.9c0-1 0-1.8-.1-2.6h1.5l.1 1.6c.5-.9 1.6-1.8 3.2-1.8 1.3 0 3.4.8 3.4 4.1v5.7h-1.7v-5.5c0-1.5-.6-2.8-2.2-2.8-1.1 0-2 .8-2.3 1.8-.1.2-.1.5-.1.8v5.7h-1.7v-7z"/></g></svg>