<svg xmlns="http://www.w3.org/2000/svg" viewBox="0 0 216 137.2" enable-background="new 0 0 216 137.2"><path fill="#fff" d="M0 0h216v137.2H0z"/><path fill="#FCB316" d="M3.6 114.9h208.8v18.7H3.6z"/><path fill="#10357F" d="M3.6 3.6h208.8v18.7H3.6zM87.2 42.9L65.6 94.4H51.5L40.9 53.3c-.6-2.5-1.2-3.5-3.2-4.5-3.2-1.7-8.5-3.4-13.1-4.4l.3-1.5h22.7c2.9 0 5.5 1.9 6.1 5.2L59.3 78l13.8-35h14.1zm55.1 34.7c.1-13.6-18.8-14.3-18.6-20.4 0-1.8 1.8-3.8 5.6-4.3 1.9-.2 7.2-.4 13.1 2.3l2.3-10.9c-3.2-1.2-7.3-2.3-12.5-2.3-13.2 0-22.4 7-22.5 17-.1 7.4 6.6 11.5 11.6 14 5.2 2.5 6.9 4.1 6.9 6.4 0 3.5-4.1 5-8 5-6.7.1-10.6-1.8-13.7-3.3l-2.4 11.3c3.1 1.4 8.9 2.7 14.8 2.7 14.2.1 23.4-6.8 23.4-17.5m34.8 16.8h12.3l-10.8-51.5h-11.4c-2.6 0-4.7 1.5-5.7 3.8l-20 47.7h14l2.8-7.7h17.1l1.7 7.7zm-14.9-18.2l7-19.3 4 19.3h-11zm-56-33.3l-11 51.5H81.9l11-51.5h13.3z"/></svg>