<svg xmlns="http://www.w3.org/2000/svg" viewBox="0 0 200 127.1" enable-background="new 0 0 200 127.1"><g><path fill="#fff" d="M200 127.1H0V0h200v127.1z"/><path fill="#F7B600" d="M3.3 106.4h193.3v17.3H3.3v-17.3z"/><path fill="#1A1F71" d="M3.3 20.7h193.3V3.3H3.3v17.4z"/><g><path fill="#1A1F71" d="M96.154 36.316l-9.722 45.278h-11.76l9.723-45.278h11.76zm49.26 29.26l6.203-17.038 3.52 17.037h-9.724zm13.148 16.018h10.833l-9.537-45.278h-10c-2.222 0-4.167 1.296-5 3.333l-17.593 41.944h12.408l2.407-6.76h15l1.482 6.76zm-30.65-14.815c.094-11.945-16.48-12.594-16.388-17.87 0-1.668 1.575-3.335 5-3.798 1.667-.185 6.297-.37 11.575 2.037l2.036-9.63c-2.778-1.02-6.482-2.037-10.926-2.037-11.667 0-19.815 6.203-19.908 15-.092 6.48 5.834 10.185 10.278 12.315 4.537 2.222 6.11 3.61 6.11 5.648 0 3.055-3.61 4.352-7.036 4.444-5.926.093-9.352-1.574-12.037-2.87l-2.13 9.907c2.778 1.297 7.778 2.315 13.056 2.408 12.315 0 20.37-6.11 20.37-15.556M79.395 36.315L60.413 81.594H48.006l-9.352-36.11c-.556-2.224-1.02-3.057-2.778-3.983-2.778-1.573-7.5-2.962-11.574-3.888l.278-1.296h19.907c2.5 0 4.815 1.667 5.37 4.63l4.908 26.203L67.08 36.315h12.315z"/></g><g fill="#1A1F71"><path d="M127.417 98.544c.205 0 .513.098.718.098h.923c1.744 0 3.18-.488 4.104-1.365.923-.877 1.436-2.242 1.436-3.9 0-.68-.103-1.363-.308-1.948-.205-.586-.513-1.073-.923-1.463-.41-.39-1.026-.683-1.64-.975-.617-.195-1.438-.39-2.258-.39-.412 0-.822 0-1.13.098-.308 0-.615.097-.82.097l-.103 9.747zm-1.642-10.82c.513-.097 1.026-.097 1.642-.194.615 0 1.23-.098 1.95-.098 1.23 0 2.256.098 3.077.39s1.54.683 2.154 1.17c.616.487 1.026 1.17 1.334 1.852.308.682.513 1.56.513 2.534 0 .975-.205 1.95-.513 2.73-.308.78-.718 1.46-1.334 2.046-.615.585-1.436 1.072-2.36 1.365-.923.29-2.05.39-3.385.39h-1.64s-.925-.1-1.335-.1l-.103-12.085z"/><path d="M144.447 94.548c0-.293 0-.488-.103-.877-.102-.292-.205-.584-.41-.877-.205-.292-.41-.487-.718-.682-.308-.194-.718-.29-1.13-.29-.41 0-.82.096-1.127.29-.31.196-.617.39-.822.683-.205.293-.41.488-.513.878-.103.293-.205.585-.205.878h5.027zm-4.925 1.17c0 .584.103.974.308 1.364.205.39.41.682.718.975.308.195.616.39 1.026.585.41.097.82.195 1.23.195.617 0 1.13 0 1.54-.098.41-.098.718-.196 1.026-.293l.308 1.17c-.308.097-.718.292-1.23.39-.514.097-1.13.194-1.848.194-.718 0-1.334-.096-1.95-.29-.512-.196-1.025-.49-1.435-.878-.41-.39-.718-.878-.924-1.463-.204-.585-.306-1.17-.306-1.852s.102-1.268.307-1.852c.207-.585.514-1.073.822-1.56.41-.39.82-.78 1.334-.975.513-.29 1.128-.39 1.846-.39.718 0 1.334.1 1.847.39.512.294.922.586 1.127 1.073.308.39.513.878.616 1.365.103.487.205.975.205 1.365V95.815l-6.566-.097z"/><path d="M149.884 96.302v.293c0 .097 0 .195.103.292.205.585.513.975.923 1.365.41.292 1.026.487 1.64.487.412 0 .822-.098 1.13-.196.308-.195.615-.39.923-.682.205-.293.41-.682.513-1.072.103-.39.205-.878.205-1.365 0-.39-.1-.877-.204-1.267-.103-.39-.308-.78-.513-1.072-.205-.293-.513-.585-.82-.683-.308-.194-.72-.292-1.232-.292-.614 0-1.127.196-1.64.488-.513.293-.82.78-1.026 1.462 0 .098 0 .195-.103.293v.39l.104 1.56zm-1.744-9.454h1.64v5.555c.31-.487.72-.877 1.232-1.17.513-.292 1.232-.39 1.95-.39.615 0 1.128.098 1.54.293.51.195.922.488 1.23.975.307.39.615.878.82 1.463.206.585.308 1.17.308 1.852 0 .78-.102 1.462-.41 2.047-.205.585-.513 1.072-.924 1.462-.41.39-.82.682-1.333.877-.513.196-1.026.294-1.54.294-.717 0-1.23-.098-1.846-.39-.513-.293-.923-.682-1.333-1.267h-.103l-.102 1.462h-1.436c0-.294 0-.684.103-1.073v-1.17l.205-10.82z"/><path d="M159.938 87.53c.308 0 .615.097.718.292.205.195.308.39.308.683 0 .292-.103.487-.308.682-.205.195-.41.292-.82.292-.31 0-.514-.098-.72-.293-.204-.195-.307-.39-.307-.682 0-.293.102-.488.307-.683.308-.195.513-.292.82-.292zm-.82 12.28v-8.87h1.64v8.87h-1.64z"/><path d="M165.58 88.894v2.145h2.462v1.266h-2.462v4.776c0 .585.103.975.308 1.267.205.292.513.39 1.026.39h.513c.102 0 .308-.098.41-.098l.103 1.17c-.205.097-.41.097-.616.194-.205 0-.513.098-.82.098-.82 0-1.437-.195-1.847-.683-.205-.194-.41-.583-.513-.973-.103-.39-.103-.878-.103-1.365v-4.776h-1.435V91.04h1.436V89.38l1.54-.488z"/></g></g></svg>