<?xml version="1.0" encoding="UTF-8"?>
<svg width="131px" height="49px" viewBox="0 0 131 49" version="1.1" xmlns="http://www.w3.org/2000/svg" xmlns:xlink="http://www.w3.org/1999/xlink">
    <!-- Generator: Sketch Beta 42 (36644) - http://www.bohemiancoding.com/sketch -->
    <title>Group 18</title>
    <desc>Created with Sketch Beta.</desc>
    <defs>
        <linearGradient x1="22.6637178%" y1="109.277641%" x2="69.7197964%" y2="-23.018909%" id="linearGradient-1">
            <stop stop-color="#1C6839" offset="0%"></stop>
            <stop stop-color="#5FA55C" offset="71.7036033%"></stop>
            <stop stop-color="#6CAF69" offset="100%"></stop>
        </linearGradient>
    </defs>
    <g id="Symbols" stroke="none" stroke-width="1" fill="none" fill-rule="evenodd">
        <g id="Nav" transform="translate(-150.000000, -21.000000)">
            <g id="Group-6" transform="translate(1.000000, 0.000000)">
                <g id="Group-18" transform="translate(149.000000, 21.000000)">
                    <path d="M74.9003906,19.3769531 C74.9003906,20.8945388 74.3825735,22.0617635 73.3469238,22.8786621 C72.3112741,23.6955607 70.8295995,24.1040039 68.9018555,24.1040039 L67.1381836,24.1040039 L67.1381836,30 L65.3950195,30 L65.3950195,15.0087891 L69.28125,15.0087891 C73.0273625,15.0087891 74.9003906,16.4648292 74.9003906,19.3769531 Z M67.1381836,22.6069336 L68.7070312,22.6069336 C70.2519608,22.6069336 71.3696255,22.3574244 72.0600586,21.8583984 C72.7504917,21.3593725 73.0957031,20.5595758 73.0957031,19.4589844 C73.0957031,18.4677685 72.7709993,17.7294946 72.121582,17.2441406 C71.4721647,16.7587866 70.4604561,16.5161133 69.0864258,16.5161133 L67.1381836,16.5161133 L67.1381836,22.6069336 Z M84.6928711,30 L84.3544922,28.4003906 L84.2724609,28.4003906 C83.7119113,29.1044957 83.153079,29.5812976 82.5959473,29.8308105 C82.0388156,30.0803235 81.3432659,30.2050781 80.5092773,30.2050781 C79.395014,30.2050781 78.5217317,29.9179716 77.8894043,29.34375 C77.2570769,28.7695284 76.940918,27.952642 76.940918,26.8930664 C76.940918,24.6235238 78.7558412,23.4340826 82.3857422,23.324707 L84.2929688,23.2631836 L84.2929688,22.565918 C84.2929688,21.6840776 84.1032734,21.0329611 83.723877,20.6125488 C83.3444805,20.1921366 82.7377971,19.9819336 81.9038086,19.9819336 C80.9672805,19.9819336 79.9077208,20.2690401 78.7250977,20.8432617 L78.2021484,19.5410156 C78.7558621,19.2402329 79.3625455,19.0043954 80.0222168,18.8334961 C80.6818881,18.6625968 81.3432584,18.5771484 82.0063477,18.5771484 C83.3461981,18.5771484 84.3391081,18.8745087 84.9851074,19.4692383 C85.6311067,20.0639678 85.9541016,21.0175716 85.9541016,22.3300781 L85.9541016,30 L84.6928711,30 Z M80.8476562,28.800293 C81.9072319,28.800293 82.7394989,28.5097685 83.3444824,27.9287109 C83.9494659,27.3476533 84.2519531,26.5341849 84.2519531,25.4882812 L84.2519531,24.4731445 L82.5498047,24.5449219 C81.1962823,24.5927737 80.220462,24.8029767 79.6223145,25.1755371 C79.0241669,25.5480976 78.7250977,26.1274375 78.7250977,26.9135742 C78.7250977,27.5288117 78.9113751,27.9970687 79.2839355,28.3183594 C79.656496,28.63965 80.177731,28.800293 80.8476562,28.800293 Z M87.6767578,18.7617188 L89.5019531,18.7617188 L91.9628906,25.1704102 C92.5029324,26.6333081 92.83789,27.6894499 92.9677734,28.3388672 L93.0498047,28.3388672 C93.1386723,27.9902326 93.3249498,27.393803 93.6086426,26.5495605 C93.8923354,25.705318 94.8203046,23.1093967 96.3925781,18.7617188 L98.2177734,18.7617188 L93.3881836,31.5585938 C92.9096656,32.8232485 92.3508333,33.7204563 91.7116699,34.2502441 C91.0725066,34.7800319 90.2880906,35.0449219 89.3583984,35.0449219 C88.8388646,35.0449219 88.3261744,34.986817 87.8203125,34.8706055 L87.8203125,33.5068359 C88.1962909,33.5888676 88.6166969,33.6298828 89.081543,33.6298828 C90.2504941,33.6298828 91.0844702,32.9736394 91.5834961,31.6611328 L92.2089844,30.0615234 L87.6767578,18.7617188 Z M101.745117,30 L100.042969,30 L100.042969,14.0449219 L101.745117,14.0449219 L101.745117,30 Z M107.056641,30 L105.354492,30 L105.354492,18.7617188 L107.056641,18.7617188 L107.056641,30 Z M105.210938,15.7163086 C105.210938,15.3266582 105.30664,15.0412607 105.498047,14.8601074 C105.689454,14.6789542 105.92871,14.5883789 106.21582,14.5883789 C106.489259,14.5883789 106.725097,14.6806631 106.92334,14.8652344 C107.121583,15.0498056 107.220703,15.3334942 107.220703,15.7163086 C107.220703,16.099123 107.121583,16.3845205 106.92334,16.5725098 C106.725097,16.760499 106.489259,16.8544922 106.21582,16.8544922 C105.92871,16.8544922 105.689454,16.760499 105.498047,16.5725098 C105.30664,16.3845205 105.210938,16.099123 105.210938,15.7163086 Z M112.347656,24.2475586 C112.641603,23.8305643 113.089352,23.2836948 113.690918,22.6069336 L117.320801,18.7617188 L119.34082,18.7617188 L114.788086,23.550293 L119.658691,30 L117.597656,30 L113.629395,24.6884766 L112.347656,25.7958984 L112.347656,30 L110.666016,30 L110.666016,14.0449219 L112.347656,14.0449219 L112.347656,22.5043945 C112.347656,22.880373 112.320313,23.4614219 112.265625,24.2475586 L112.347656,24.2475586 Z M126.436523,30.2050781 C124.775382,30.2050781 123.464604,29.6992238 122.50415,28.6875 C121.543696,27.6757762 121.063477,26.2710051 121.063477,24.4731445 C121.063477,22.661612 121.509517,21.2226616 122.401611,20.15625 C123.293706,19.0898384 124.491692,18.5566406 125.995605,18.5566406 C127.403816,18.5566406 128.518062,19.0197708 129.338379,19.9460449 C130.158696,20.8723191 130.568848,22.0942307 130.568848,23.6118164 L130.568848,24.6884766 L122.827148,24.6884766 C122.861328,26.0078191 123.194577,27.0092739 123.826904,27.6928711 C124.459232,28.3764683 125.349604,28.7182617 126.498047,28.7182617 C127.708014,28.7182617 128.904291,28.4653346 130.086914,27.9594727 L130.086914,29.4770508 C129.485349,29.7368177 128.916262,29.9230951 128.379639,30.0358887 C127.843015,30.1486822 127.195316,30.2050781 126.436523,30.2050781 Z M125.975098,19.9819336 C125.072749,19.9819336 124.353274,20.275876 123.81665,20.8637695 C123.280027,21.4516631 122.963868,22.2651315 122.868164,23.3041992 L128.743652,23.3041992 C128.743652,22.2309517 128.504397,21.4089384 128.025879,20.8381348 C127.547361,20.2673311 126.863774,19.9819336 125.975098,19.9819336 Z" id="Paylike" fill="#FFFFFF"></path>
                    <path d="M0.788296407,27.4640742 L21.9476937,48.6897795 L47.4792045,23.1479399 L35.2759799,2.88408933 C33.566088,0.0447583986 29.9956368,-0.701488729 27.2953726,1.22141657 L2.79943984,18.6653986 L0.788296407,27.4640742 Z" id="Path-2" fill="#418A4C" transform="translate(24.133750, 24.421798) scale(-1, 1) translate(-24.133750, -24.421798) "></path>
                    <polygon id="Path-3" fill-opacity="0.200000003" fill="#010000" points="3.9334159 23.1088863 0.865600601 23.1088863 23.3296351 2.96638885 35.1238067 11.1133025"></polygon>
                    <path d="M0.827325099,23.1479399 L26.3397082,48.6897795 L49.7492506,25.2707668 C50.9211814,24.0983619 51.1740863,21.9903285 50.3200502,20.5721738 L39.6679944,2.88408933 C37.9581026,0.0447583986 34.3897817,-0.706025737 31.6767706,1.2222024 L0.827325099,23.1479399 Z" id="Combined-Shape" fill="url(#linearGradient-1)"></path>
                </g>
            </g>
        </g>
    </g>
</svg>