<svg xmlns="http://www.w3.org/2000/svg" viewBox="0 0 1450 500">
	<path fill="#25752C" d="M214.4 12.8l167.1 123.7c20.8 15.4 23 45.6 4.8 63.9L260.2 227 15 241.8 142.1 27.4c15-25.3 48.6-32.1 72.3-14.6z"/>
	<path fill="#1C6021" d="M15.3 242.1l244.6-15.4 129.9-30.4c14.3-18.4 11.1-45.6-8.3-59.9L247.3 37.1l-232 205z"/>
	<linearGradient id="a" gradientUnits="userSpaceOnUse" x1="157.102" y1="397.91" x2="373.942" y2="88.647">
		<stop offset="0" stop-color="#1D8042"/>
		<stop offset="1" stop-color="#2E8F29"/>
	</linearGradient>
	<path fill="url(#a)" d="M501.2 265l-232 232L14.5 242.3 320.4 16.2c26.1-19.3 63.2-11.8 79.8 16.1l107.4 181.3c9.9 16.6 7.2 37.8-6.4 51.4z"/>
	<path d="M778.5 227.7c0 17.9-6.1 31.7-18.3 41.3-12.2 9.6-29.5 14.3-51.8 14.3h-28.7V360h-12.9V174.4h45.4c44.2 0 66.3 17.8 66.3 53.3zm-98.7 44.4h25.5c20.9 0 36-3.4 45.3-10.3 9.3-6.9 14-18.1 14-33.6 0-14.3-4.4-24.9-13.2-31.8-8.8-6.9-22.4-10.3-40.9-10.3h-30.7v86zM899.5 360l-3.2-21.8h-1c-6.9 8.9-14.1 15.2-21.4 18.9-7.3 3.7-16 5.5-26 5.5-13.5 0-24.1-3.5-31.6-10.4S805 335.7 805 323.4c0-13.5 5.6-23.9 16.8-31.4 11.2-7.4 27.4-11.4 48.7-11.8l26.3-.8v-9.1c0-13.1-2.7-23-8-29.7-5.3-6.7-13.9-10-25.8-10-12.8 0-26 3.6-39.7 10.7l-4.7-10.9c15.1-7.1 30.1-10.7 44.9-10.7 15.1 0 26.5 3.9 34 11.8s11.2 20.1 11.2 36.8V360h-9.2zm-50.8-8.9c14.7 0 26.3-4.2 34.8-12.6 8.5-8.4 12.8-20.1 12.8-35.1v-13.6l-24.1 1c-19.4.9-33.2 4-41.5 9.1-8.3 5.1-12.4 13.1-12.4 23.9 0 8.6 2.6 15.3 7.9 20.1 5.4 4.8 12.9 7.2 22.5 7.2zM930.4 222h12.9l29.2 77.4c8.9 23.8 14.5 39.8 16.9 48.1h.8c3.6-10.9 9.4-27.2 17.4-48.9l29.2-76.7h12.9l-61.8 160.3c-5 13-9.2 21.8-12.6 26.4-3.4 4.6-7.3 8-11.9 10.3-4.5 2.3-10 3.4-16.4 3.4-4.8 0-10.2-.9-16.1-2.7v-10.9c4.9 1.4 10.2 2 15.9 2 4.3 0 8.1-1 11.4-3s6.3-5.2 9-9.5 5.8-11 9.3-20.3c3.5-9.3 5.8-15.3 6.8-18.1L930.4 222zm155 138h-12.6V162.5h12.6V360zm44.4-176.3c0-8.1 2.7-12.2 8-12.2 2.6 0 4.7 1.1 6.2 3.2s2.2 5.1 2.2 9c0 3.8-.7 6.8-2.2 9-1.5 2.2-3.5 3.3-6.2 3.3-5.3 0-8-4.1-8-12.3zm14.4 176.3h-12.6V222h12.6v138zm58.5-60.6l70.5-77.4h15.2l-54.3 58.9 59 79.1H1278l-52.4-69.7-22.6 20.6V360h-12.6V162.5h12.6v99l-.9 38h.6zm169.2 63.1c-20.1 0-35.7-6.2-46.9-18.5-11.2-12.4-16.8-29.7-16.8-51.9 0-22 5.4-39.6 16.2-52.9 10.8-13.2 25.4-19.9 43.8-19.9 16.2 0 29.1 5.7 38.5 17 9.4 11.3 14.1 26.7 14.1 46.2v10.2h-99.4c.2 19 4.6 33.4 13.3 43.4 8.7 10 21.1 15 37.3 15 7.9 0 14.8-.5 20.8-1.7 6-1.1 13.5-3.5 22.7-7.1v11.4c-7.8 3.4-15 5.7-21.6 6.9s-14 1.9-22 1.9zm-3.7-132c-13.3 0-24 4.4-32 13.1-8 8.8-12.7 21.4-14.1 37.9h85.3c0-16-3.5-28.5-10.4-37.5s-16.5-13.5-28.8-13.5z" fill="#2E8F29"/>
</svg>
